<svg width="500" height="250" viewBox="0 0 500 250" fill="none" xmlns="http://www.w3.org/2000/svg">
<g clip-path="url(#clip0_9_354)">
<path d="M34.4785 242V207.92H45.0385C50.2865 207.92 54.3185 209.408 57.1345 212.384C59.9825 215.328 61.4065 219.536 61.4065 225.008C61.4065 230.448 60.0145 234.64 57.2305 237.584C54.4465 240.528 50.4785 242 45.3265 242H34.4785ZM38.6065 237.968H45.0385C49.0385 237.968 52.0465 236.896 54.0625 234.752C56.0785 232.576 57.0865 229.328 57.0865 225.008C57.0865 220.624 56.0785 217.36 54.0625 215.216C52.0465 213.04 49.0385 211.952 45.0385 211.952H38.6065V237.968ZM74.7509 242.576C72.1269 242.576 70.0309 241.968 68.4629 240.752C66.9269 239.536 66.1589 237.84 66.1589 235.664C66.1589 233.488 66.7989 231.776 68.0789 230.528C69.3589 229.28 71.3909 228.4 74.1749 227.888L83.1989 226.208C83.1989 224.064 82.6869 222.464 81.6629 221.408C80.6709 220.352 79.1669 219.824 77.1509 219.824C75.3909 219.824 73.9989 220.224 72.9749 221.024C71.9509 221.792 71.2469 222.912 70.8629 224.384L66.5909 224.048C67.0709 221.648 68.2229 219.712 70.0469 218.24C71.9029 216.736 74.2709 215.984 77.1509 215.984C80.4149 215.984 82.9109 216.912 84.6389 218.768C86.3669 220.592 87.2309 223.12 87.2309 226.352V236.864C87.2309 237.44 87.3269 237.856 87.5189 238.112C87.7429 238.336 88.0949 238.448 88.5749 238.448H89.5829V242C89.4549 242.032 89.2469 242.048 88.9589 242.048C88.6709 242.08 88.3669 242.096 88.0469 242.096C86.8949 242.096 85.9509 241.92 85.2149 241.568C84.5109 241.184 83.9989 240.608 83.6789 239.84C83.3589 239.04 83.1989 238 83.1989 236.72L83.6789 236.816C83.4549 237.904 82.9109 238.896 82.0469 239.792C81.1829 240.656 80.1109 241.344 78.8309 241.856C77.5509 242.336 76.1909 242.576 74.7509 242.576ZM75.1349 239.024C76.8309 239.024 78.2709 238.704 79.4549 238.064C80.6709 237.392 81.5989 236.496 82.2389 235.376C82.8789 234.224 83.1989 232.944 83.1989 231.536V229.712L74.9429 231.248C73.2149 231.568 72.0149 232.064 71.3429 232.736C70.7029 233.376 70.3829 234.224 70.3829 235.28C70.3829 236.464 70.7989 237.392 71.6309 238.064C72.4949 238.704 73.6629 239.024 75.1349 239.024ZM102.183 242C99.8793 242 98.1673 241.472 97.0473 240.416C95.9593 239.36 95.4153 237.712 95.4153 235.472V210.608H99.4473V235.376C99.4473 236.528 99.7033 237.328 100.215 237.776C100.727 238.224 101.511 238.448 102.567 238.448H106.215V242H102.183ZM91.6713 220.112V216.56H106.215V220.112H91.6713ZM118.063 242.576C115.439 242.576 113.343 241.968 111.775 240.752C110.239 239.536 109.471 237.84 109.471 235.664C109.471 233.488 110.111 231.776 111.391 230.528C112.671 229.28 114.703 228.4 117.487 227.888L126.511 226.208C126.511 224.064 125.999 222.464 124.975 221.408C123.983 220.352 122.479 219.824 120.463 219.824C118.703 219.824 117.311 220.224 116.287 221.024C115.263 221.792 114.559 222.912 114.175 224.384L109.903 224.048C110.383 221.648 111.535 219.712 113.359 218.24C115.215 216.736 117.583 215.984 120.463 215.984C123.727 215.984 126.223 216.912 127.951 218.768C129.679 220.592 130.543 223.12 130.543 226.352V236.864C130.543 237.44 130.639 237.856 130.831 238.112C131.055 238.336 131.407 238.448 131.887 238.448H132.895V242C132.767 242.032 132.559 242.048 132.271 242.048C131.983 242.08 131.679 242.096 131.359 242.096C130.207 242.096 129.263 241.92 128.527 241.568C127.823 241.184 127.311 240.608 126.991 239.84C126.671 239.04 126.511 238 126.511 236.72L126.991 236.816C126.767 237.904 126.223 238.896 125.359 239.792C124.495 240.656 123.423 241.344 122.143 241.856C120.863 242.336 119.503 242.576 118.063 242.576ZM118.447 239.024C120.143 239.024 121.583 238.704 122.767 238.064C123.983 237.392 124.911 236.496 125.551 235.376C126.191 234.224 126.511 232.944 126.511 231.536V229.712L118.255 231.248C116.527 231.568 115.327 232.064 114.655 232.736C114.015 233.376 113.695 234.224 113.695 235.28C113.695 236.464 114.111 237.392 114.943 238.064C115.807 238.704 116.975 239.024 118.447 239.024ZM142.945 242L133.681 216.56H138.097L145.489 237.872L152.881 216.56H157.297L148.033 242H142.945ZM170.87 242.576C168.47 242.576 166.39 242.032 164.63 240.944C162.902 239.856 161.558 238.32 160.598 236.336C159.67 234.32 159.206 231.968 159.206 229.28C159.206 226.592 159.67 224.256 160.598 222.272C161.558 220.288 162.886 218.752 164.582 217.664C166.31 216.544 168.342 215.984 170.678 215.984C172.886 215.984 174.838 216.512 176.534 217.568C178.23 218.592 179.542 220.096 180.47 222.08C181.43 224.064 181.91 226.48 181.91 229.328V230.528H163.43C163.59 233.248 164.31 235.296 165.59 236.672C166.902 238.048 168.662 238.736 170.87 238.736C172.534 238.736 173.894 238.352 174.95 237.584C176.038 236.784 176.79 235.744 177.206 234.464L181.526 234.8C180.854 237.072 179.574 238.944 177.686 240.416C175.83 241.856 173.558 242.576 170.87 242.576ZM163.43 226.976H177.494C177.302 224.512 176.582 222.704 175.334 221.552C174.118 220.4 172.566 219.824 170.678 219.824C168.726 219.824 167.11 220.432 165.83 221.648C164.582 222.832 163.782 224.608 163.43 226.976ZM187.371 242V216.56H190.923L191.115 222.992L190.731 222.848C191.051 220.672 191.739 219.088 192.795 218.096C193.883 217.072 195.323 216.56 197.115 216.56H199.611V220.4H197.163C195.883 220.4 194.811 220.64 193.947 221.12C193.115 221.568 192.475 222.256 192.027 223.184C191.611 224.08 191.403 225.232 191.403 226.64V242H187.371ZM212.901 242.576C210.629 242.576 208.693 242.208 207.093 241.472C205.525 240.736 204.293 239.728 203.397 238.448C202.533 237.136 202.037 235.648 201.909 233.984L206.133 233.696C206.389 235.232 207.045 236.464 208.101 237.392C209.157 238.288 210.757 238.736 212.901 238.736C214.629 238.736 216.005 238.464 217.029 237.92C218.085 237.344 218.613 236.432 218.613 235.184C218.613 234.512 218.453 233.952 218.133 233.504C217.813 233.056 217.189 232.672 216.261 232.352C215.333 232 213.957 231.664 212.133 231.344C209.701 230.896 207.781 230.352 206.373 229.712C204.997 229.04 204.005 228.224 203.397 227.264C202.821 226.272 202.533 225.104 202.533 223.76C202.533 221.488 203.365 219.632 205.029 218.192C206.693 216.72 209.061 215.984 212.133 215.984C214.213 215.984 215.957 216.368 217.365 217.136C218.805 217.872 219.925 218.864 220.725 220.112C221.557 221.328 222.101 222.672 222.357 224.144L218.133 224.432C217.941 223.536 217.589 222.752 217.077 222.08C216.565 221.376 215.893 220.832 215.061 220.448C214.229 220.032 213.237 219.824 212.085 219.824C210.261 219.824 208.917 220.176 208.053 220.88C207.189 221.584 206.757 222.48 206.757 223.568C206.757 224.4 206.949 225.088 207.333 225.632C207.749 226.144 208.405 226.576 209.301 226.928C210.197 227.248 211.397 227.536 212.901 227.792C215.493 228.24 217.509 228.784 218.949 229.424C220.389 230.064 221.397 230.848 221.973 231.776C222.549 232.704 222.837 233.84 222.837 235.184C222.837 236.752 222.389 238.096 221.493 239.216C220.629 240.304 219.445 241.136 217.941 241.712C216.469 242.288 214.789 242.576 212.901 242.576ZM238.276 242.576C235.876 242.576 233.796 242.032 232.036 240.944C230.308 239.856 228.964 238.32 228.004 236.336C227.076 234.32 226.612 231.968 226.612 229.28C226.612 226.592 227.076 224.256 228.004 222.272C228.964 220.288 230.292 218.752 231.988 217.664C233.716 216.544 235.748 215.984 238.084 215.984C240.292 215.984 242.244 216.512 243.94 217.568C245.636 218.592 246.948 220.096 247.876 222.08C248.836 224.064 249.316 226.48 249.316 229.328V230.528H230.836C230.996 233.248 231.716 235.296 232.996 236.672C234.308 238.048 236.068 238.736 238.276 238.736C239.94 238.736 241.3 238.352 242.356 237.584C243.444 236.784 244.196 235.744 244.612 234.464L248.932 234.8C248.26 237.072 246.98 238.944 245.092 240.416C243.236 241.856 240.964 242.576 238.276 242.576ZM230.836 226.976H244.9C244.708 224.512 243.988 222.704 242.74 221.552C241.524 220.4 239.972 219.824 238.084 219.824C236.132 219.824 234.516 220.432 233.236 221.648C231.988 222.832 231.188 224.608 230.836 226.976ZM279.534 242.768C276.91 242.768 274.622 242.272 272.67 241.28C270.718 240.288 269.166 238.928 268.014 237.2C266.894 235.44 266.238 233.408 266.046 231.104L270.366 230.816C270.59 232.512 271.086 233.952 271.854 235.136C272.622 236.32 273.646 237.216 274.926 237.824C276.238 238.432 277.806 238.736 279.63 238.736C281.23 238.736 282.59 238.528 283.71 238.112C284.83 237.696 285.678 237.088 286.254 236.288C286.862 235.488 287.166 234.512 287.166 233.36C287.166 232.304 286.91 231.376 286.398 230.576C285.918 229.744 284.974 228.992 283.566 228.32C282.19 227.616 280.142 226.928 277.422 226.256C274.798 225.584 272.702 224.848 271.134 224.048C269.598 223.248 268.478 222.272 267.774 221.12C267.102 219.968 266.766 218.544 266.766 216.848C266.766 214.928 267.214 213.248 268.11 211.808C269.038 210.336 270.35 209.2 272.046 208.4C273.742 207.568 275.758 207.152 278.094 207.152C280.59 207.152 282.734 207.632 284.526 208.592C286.318 209.52 287.742 210.8 288.798 212.432C289.854 214.064 290.51 215.92 290.766 218L286.446 218.288C286.254 216.912 285.806 215.696 285.102 214.64C284.43 213.552 283.502 212.704 282.318 212.096C281.134 211.488 279.694 211.184 277.998 211.184C275.886 211.184 274.206 211.696 272.958 212.72C271.71 213.712 271.086 215.024 271.086 216.656C271.086 217.712 271.326 218.592 271.806 219.296C272.318 219.968 273.214 220.576 274.494 221.12C275.774 221.632 277.614 222.192 280.014 222.8C282.862 223.504 285.118 224.352 286.782 225.344C288.478 226.304 289.678 227.424 290.382 228.704C291.118 229.984 291.486 231.44 291.486 233.072C291.486 235.056 290.974 236.784 289.95 238.256C288.926 239.696 287.518 240.816 285.726 241.616C283.934 242.384 281.87 242.768 279.534 242.768ZM308.542 242.576C306.206 242.576 304.158 242.032 302.398 240.944C300.638 239.856 299.278 238.32 298.318 236.336C297.358 234.32 296.878 231.968 296.878 229.28C296.878 226.56 297.358 224.208 298.318 222.224C299.278 220.24 300.638 218.704 302.398 217.616C304.158 216.528 306.206 215.984 308.542 215.984C310.878 215.984 312.91 216.528 314.638 217.616C316.398 218.704 317.758 220.24 318.718 222.224C319.678 224.208 320.158 226.56 320.158 229.28C320.158 231.968 319.678 234.32 318.718 236.336C317.758 238.32 316.398 239.856 314.638 240.944C312.91 242.032 310.878 242.576 308.542 242.576ZM308.542 238.736C310.878 238.736 312.686 237.904 313.966 236.24C315.278 234.544 315.934 232.224 315.934 229.28C315.934 226.336 315.278 224.032 313.966 222.368C312.686 220.672 310.878 219.824 308.542 219.824C306.206 219.824 304.382 220.672 303.07 222.368C301.758 224.032 301.102 226.336 301.102 229.28C301.102 232.224 301.758 234.544 303.07 236.24C304.382 237.904 306.206 238.736 308.542 238.736ZM330.879 242C329.407 242 328.207 241.616 327.279 240.848C326.351 240.08 325.887 238.864 325.887 237.2V207.92H329.919V236.864C329.919 237.376 330.047 237.776 330.303 238.064C330.591 238.32 330.991 238.448 331.503 238.448H333.711V242H330.879ZM346.567 242.576C344.039 242.576 342.007 241.728 340.471 240.032C338.967 238.304 338.215 235.936 338.215 232.928V216.56H342.247V231.824C342.247 234.288 342.679 236.112 343.543 237.296C344.439 238.448 345.799 239.024 347.623 239.024C349.639 239.024 351.223 238.384 352.375 237.104C353.527 235.792 354.103 234 354.103 231.728V216.56H358.135V242H354.295V235.712L354.919 236.048C354.407 238.128 353.431 239.744 351.991 240.896C350.551 242.016 348.743 242.576 346.567 242.576ZM373.777 242C371.473 242 369.761 241.472 368.641 240.416C367.553 239.36 367.009 237.712 367.009 235.472V210.608H371.041V235.376C371.041 236.528 371.297 237.328 371.809 237.776C372.321 238.224 373.105 238.448 374.161 238.448H377.809V242H373.777ZM363.265 220.112V216.56H377.809V220.112H363.265ZM382.981 242V216.56H387.013V242H382.981ZM382.885 212.576V207.872H387.109V212.576H382.885ZM404.167 242.576C401.831 242.576 399.783 242.032 398.023 240.944C396.263 239.856 394.903 238.32 393.943 236.336C392.983 234.32 392.503 231.968 392.503 229.28C392.503 226.56 392.983 224.208 393.943 222.224C394.903 220.24 396.263 218.704 398.023 217.616C399.783 216.528 401.831 215.984 404.167 215.984C406.503 215.984 408.535 216.528 410.263 217.616C412.023 218.704 413.383 220.24 414.343 222.224C415.303 224.208 415.783 226.56 415.783 229.28C415.783 231.968 415.303 234.32 414.343 236.336C413.383 238.32 412.023 239.856 410.263 240.944C408.535 242.032 406.503 242.576 404.167 242.576ZM404.167 238.736C406.503 238.736 408.311 237.904 409.591 236.24C410.903 234.544 411.559 232.224 411.559 229.28C411.559 226.336 410.903 224.032 409.591 222.368C408.311 220.672 406.503 219.824 404.167 219.824C401.831 219.824 400.007 220.672 398.695 222.368C397.383 224.032 396.727 226.336 396.727 229.28C396.727 232.224 397.383 234.544 398.695 236.24C400.007 237.904 401.831 238.736 404.167 238.736ZM421.278 242V216.56H424.974L425.118 223.04L424.638 222.608C424.958 221.104 425.518 219.872 426.318 218.912C427.118 217.92 428.078 217.184 429.198 216.704C430.35 216.224 431.582 215.984 432.894 215.984C434.846 215.984 436.446 216.416 437.694 217.28C438.974 218.144 439.918 219.312 440.526 220.784C441.166 222.224 441.486 223.84 441.486 225.632V242H437.454V226.784C437.454 225.216 437.262 223.904 436.878 222.848C436.526 221.76 435.95 220.944 435.15 220.4C434.35 219.824 433.31 219.536 432.03 219.536C430.078 219.536 428.462 220.16 427.182 221.408C425.934 222.624 425.31 224.416 425.31 226.784V242H421.278ZM457.87 242.576C455.598 242.576 453.662 242.208 452.062 241.472C450.494 240.736 449.262 239.728 448.366 238.448C447.502 237.136 447.006 235.648 446.878 233.984L451.102 233.696C451.358 235.232 452.014 236.464 453.07 237.392C454.126 238.288 455.726 238.736 457.87 238.736C459.598 238.736 460.974 238.464 461.998 237.92C463.054 237.344 463.582 236.432 463.582 235.184C463.582 234.512 463.422 233.952 463.102 233.504C462.782 233.056 462.158 232.672 461.23 232.352C460.302 232 458.926 231.664 457.102 231.344C454.67 230.896 452.75 230.352 451.342 229.712C449.966 229.04 448.974 228.224 448.366 227.264C447.79 226.272 447.502 225.104 447.502 223.76C447.502 221.488 448.334 219.632 449.998 218.192C451.662 216.72 454.03 215.984 457.102 215.984C459.182 215.984 460.926 216.368 462.334 217.136C463.774 217.872 464.894 218.864 465.694 220.112C466.526 221.328 467.07 222.672 467.326 224.144L463.102 224.432C462.91 223.536 462.558 222.752 462.046 222.08C461.534 221.376 460.862 220.832 460.03 220.448C459.198 220.032 458.206 219.824 457.054 219.824C455.23 219.824 453.886 220.176 453.022 220.88C452.158 221.584 451.726 222.48 451.726 223.568C451.726 224.4 451.918 225.088 452.302 225.632C452.718 226.144 453.374 226.576 454.27 226.928C455.166 227.248 456.366 227.536 457.87 227.792C460.462 228.24 462.478 228.784 463.918 229.424C465.358 230.064 466.366 230.848 466.942 231.776C467.518 232.704 467.806 233.84 467.806 235.184C467.806 236.752 467.358 238.096 466.462 239.216C465.598 240.304 464.414 241.136 462.91 241.712C461.438 242.288 459.758 242.576 457.87 242.576Z" fill="#00D5FF"/>
<path d="M250 16.6667L316.667 58.3334V141.667L250 183.333L183.333 141.667V58.3334L250 16.6667Z" stroke="#00D5FF" stroke-width="1.66667"/>
<path d="M250 16.6667V183.333" stroke="#00D5FF" stroke-width="1.66667"/>
<path d="M183.333 58.3333L250 100L316.667 58.3333" stroke="#00D5FF" stroke-width="1.66667"/>
<path d="M183.333 141.667L250 100L316.667 141.667" stroke="#00D5FF" stroke-width="1.66667"/>
<path d="M250 25C254.602 25 258.333 21.269 258.333 16.6666C258.333 12.0643 254.602 8.33331 250 8.33331C245.398 8.33331 241.667 12.0643 241.667 16.6666C241.667 21.269 245.398 25 250 25Z" fill="#00D5FF"/>
<path d="M316.667 66.6667C321.269 66.6667 325 62.9357 325 58.3333C325 53.731 321.269 50 316.667 50C312.064 50 308.333 53.731 308.333 58.3333C308.333 62.9357 312.064 66.6667 316.667 66.6667Z" fill="#00D5FF"/>
<path d="M316.667 150C321.269 150 325 146.269 325 141.667C325 137.064 321.269 133.333 316.667 133.333C312.064 133.333 308.333 137.064 308.333 141.667C308.333 146.269 312.064 150 316.667 150Z" fill="#00D5FF"/>
<path d="M250 191.667C254.602 191.667 258.333 187.936 258.333 183.333C258.333 178.731 254.602 175 250 175C245.398 175 241.667 178.731 241.667 183.333C241.667 187.936 245.398 191.667 250 191.667Z" fill="#00D5FF"/>
<path d="M183.333 150C187.936 150 191.667 146.269 191.667 141.667C191.667 137.064 187.936 133.333 183.333 133.333C178.731 133.333 175 137.064 175 141.667C175 146.269 178.731 150 183.333 150Z" fill="#00D5FF"/>
<path d="M183.333 66.6667C187.936 66.6667 191.667 62.9357 191.667 58.3333C191.667 53.731 187.936 50 183.333 50C178.731 50 175 53.731 175 58.3333C175 62.9357 178.731 66.6667 183.333 66.6667Z" fill="#00D5FF"/>
<path d="M250 112.5C256.904 112.5 262.5 106.904 262.5 100C262.5 93.0964 256.904 87.5 250 87.5C243.096 87.5 237.5 93.0964 237.5 100C237.5 106.904 243.096 112.5 250 112.5Z" fill="#00D5FF"/>
</g>
<defs>
<clipPath id="clip0_9_354">
<rect width="500" height="250" fill="white"/>
</clipPath>
</defs>
</svg>
